<svg width="16" height="16" xmlns="http://www.w3.org/2000/svg"><path transform="translate(0 1)" d="M5 11 9 3H3Q1 3 1 5V9Q1 11 3 11H5" fill="none" stroke="#8cec94" stroke-linecap="round" stroke-linejoin="round"/><path transform="translate(0 1)" d="M4.5 5H3.5V6H2.5V7H3.5V8H4.5V7H5.5V6H4.5V5" fill="none" stroke="#8cec94" stroke-width=".5" stroke-linecap="round" stroke-linejoin="round"/><path transform="translate(0 1)" d="M10.5 3 6.5 11H13Q15 11 15 9V5Q15 3 13 3H10.5" fill="none" stroke="#8cec94" stroke-linecap="round" stroke-linejoin="round"/><path transform="translate(0 1)" d="M12 8.25Q11.5 8.25 11.5 8.75V9.25Q11.5 9.75 12 9.75H13.25Q13.75 9.75 13.75 9.25V8.75Q13.75 8.25 13.25 8.25H12" fill="none" stroke="#8cec94" stroke-width=".5" stroke-linecap="round" stroke-linejoin="round"/><path transform="translate(0 1)" d="M10.35 6Q9.75 6 9.75 6.6V6.9Q9.75 7.5 10.35 7.5H10.85Q11.45 7.5 11.45 6.9V6.6Q11.45 6 10.85 6H10.35" fill="none" stroke="#8cec94" stroke-width=".5" stroke-linecap="round" stroke-linejoin="round"/><path transform="translate(0 1)" d="M7.1 9.75H10Q10.5 9.75 10.5 9.25V8.75Q10.5 8.25 10 8.25H7.85" fill="none" stroke="#8cec94" stroke-width=".5" stroke-linecap="round" stroke-linejoin="round"/><path transform="translate(0 1)" d="M11.75 4.15Q11.25 4.15 11.25 4.65V5Q11.25 5.5 11.75 5.5 12.25 5.5 12.25 6V6.75Q12.25 7.25 12.75 7.25H13.2Q13.75 7.25 13.75 6.75V4.65Q13.75 4.15 13.25 4.15L11.75 4.15" fill="none" stroke="#8cec94" stroke-width=".5" stroke-linecap="round" stroke-linejoin="round"/></svg>